<svg xmlns="http://www.w3.org/2000/svg" viewBox="0 0 1440 900">
  <rect width="100%" height="100%" fill="#f4f6f8"/>
  <rect x="40" y="40" width="1360" height="120" rx="16" fill="#ffffff" stroke="#d0d6dc" stroke-width="2"/>
  <text x="80" y="100" font-family="Inter, sans-serif" font-size="36" fill="#1a2a3a">Фильтры и показатели</text>
  <rect x="80" y="160" width="240" height="64" rx="12" fill="#e1e8f0"/>
  <rect x="336" y="160" width="240" height="64" rx="12" fill="#e1e8f0"/>
  <rect x="592" y="160" width="240" height="64" rx="12" fill="#e1e8f0"/>
  <rect x="848" y="160" width="240" height="64" rx="12" fill="#e1e8f0"/>
  <rect x="1104" y="160" width="240" height="64" rx="12" fill="#2d6cdf"/>
  <text x="1140" y="202" font-family="Inter, sans-serif" font-size="28" fill="#ffffff">Применить</text>
  <g font-family="Inter, sans-serif" font-size="28" fill="#4c5d70">
    <text x="96" y="212">Воронка</text>
    <text x="352" y="212">Менеджер</text>
    <text x="608" y="212">Продукт</text>
    <text x="864" y="212">Период</text>
  </g>
  <g font-family="Inter, sans-serif" font-size="24" fill="#1a2a3a">
    <text x="80" y="250">Сделок в работе: 128</text>
    <text x="360" y="250">Сумма: 24,6 млн ₽</text>
    <text x="680" y="250">Конверсия: 32%</text>
  </g>
  <g>
    <rect x="40" y="300" width="420" height="540" rx="24" fill="#ffffff" stroke="#d0d6dc" stroke-width="2"/>
    <rect x="500" y="300" width="420" height="540" rx="24" fill="#ffffff" stroke="#d0d6dc" stroke-width="2"/>
    <rect x="960" y="300" width="420" height="540" rx="24" fill="#ffffff" stroke="#d0d6dc" stroke-width="2"/>
    <text x="80" y="340" font-family="Inter, sans-serif" font-size="32" fill="#1a2a3a">Новые</text>
    <text x="540" y="340" font-family="Inter, sans-serif" font-size="32" fill="#1a2a3a">В работе</text>
    <text x="1000" y="340" font-family="Inter, sans-serif" font-size="32" fill="#1a2a3a">Согласование</text>
  </g>
  <g>
    <rect x="72" y="376" width="360" height="120" rx="18" fill="#eaf1fb" stroke="#2d6cdf" stroke-width="2"/>
    <rect x="72" y="516" width="360" height="120" rx="18" fill="#ffffff" stroke="#d0d6dc" stroke-width="2"/>
    <rect x="72" y="656" width="360" height="120" rx="18" fill="#ffffff" stroke="#d0d6dc" stroke-width="2"/>
    <rect x="532" y="376" width="360" height="120" rx="18" fill="#ffffff" stroke="#d0d6dc" stroke-width="2"/>
    <rect x="532" y="516" width="360" height="120" rx="18" fill="#ffffff" stroke="#d0d6dc" stroke-width="2"/>
    <rect x="532" y="656" width="360" height="120" rx="18" fill="#ffffff" stroke="#d0d6dc" stroke-width="2"/>
    <rect x="992" y="376" width="360" height="120" rx="18" fill="#ffffff" stroke="#d0d6dc" stroke-width="2"/>
    <rect x="992" y="516" width="360" height="120" rx="18" fill="#ffffff" stroke="#d0d6dc" stroke-width="2"/>
    <rect x="992" y="656" width="360" height="120" rx="18" fill="#ffffff" stroke="#d0d6dc" stroke-width="2"/>
  </g>
  <g font-family="Inter, sans-serif" fill="#1a2a3a">
    <text x="96" y="420" font-size="30">ООО «Альфа»</text>
    <text x="96" y="452" font-size="24" fill="#4c5d70">3,2 млн ₽ · Вероятность 70%</text>
    <text x="96" y="484" font-size="24" fill="#4c5d70">Дедлайн: 14.04</text>
    <text x="556" y="420" font-size="30">ИП Смирнов</text>
    <text x="556" y="452" font-size="24" fill="#4c5d70">1,1 млн ₽ · Вероятность 45%</text>
    <text x="556" y="484" font-size="24" fill="#d94841">Дедлайн просрочен</text>
    <text x="1016" y="420" font-size="30">Metro Group</text>
    <text x="1016" y="452" font-size="24" fill="#4c5d70">5,6 млн ₽ · Вероятность 60%</text>
    <text x="1016" y="484" font-size="24" fill="#4c5d70">Ответственный: Анна Морозова</text>
  </g>
</svg>
