<svg xmlns="http://www.w3.org/2000/svg" viewBox="0 0 1440 900">
  <rect width="100%" height="100%" fill="#f4f6f8"/>
  <rect x="40" y="40" width="1360" height="720" rx="28" fill="#ffffff" stroke="#d0d6dc" stroke-width="2"/>
  <text x="80" y="120" font-family="Inter, sans-serif" font-size="40" fill="#1a2a3a">Массовые операции</text>
  <g>
    <rect x="80" y="160" width="360" height="120" rx="20" fill="#eaf1fb" stroke="#2d6cdf" stroke-width="2"/>
    <rect x="460" y="160" width="360" height="120" rx="20" fill="#ffffff" stroke="#d0d6dc" stroke-width="2"/>
    <rect x="840" y="160" width="360" height="120" rx="20" fill="#ffffff" stroke="#d0d6dc" stroke-width="2"/>
    <text x="116" y="210" font-family="Inter, sans-serif" font-size="30" fill="#1a2a3a">ООО «Альфа»</text>
    <text x="496" y="210" font-family="Inter, sans-serif" font-size="30" fill="#1a2a3a">ИП Смирнов</text>
    <text x="876" y="210" font-family="Inter, sans-serif" font-size="30" fill="#1a2a3a">Metro Group</text>
    <g fill="#1a2a3a" font-family="Inter, sans-serif" font-size="24">
      <text x="116" y="244">Чекбокс выбран</text>
      <text x="496" y="244">Чекбокс выбран</text>
      <text x="876" y="244">Чекбокс выбран</text>
    </g>
  </g>
  <rect x="40" y="680" width="1360" height="120" rx="28" fill="#1a2233"/>
  <text x="80" y="748" font-family="Inter, sans-serif" font-size="30" fill="#ffffff">Выбрано: 3 сделки</text>
  <g font-family="Inter, sans-serif" font-size="28" fill="#ffffff">
    <rect x="420" y="708" width="200" height="64" rx="16" fill="#2d6cdf"/>
    <text x="448" y="750">Назначить</text>
    <rect x="640" y="708" width="240" height="64" rx="16" fill="#2d6cdf"/>
    <text x="672" y="750">Изменить этап</text>
    <rect x="900" y="708" width="240" height="64" rx="16" fill="#2d6cdf"/>
    <text x="932" y="750">Добавить задачу</text>
    <rect x="1160" y="708" width="200" height="64" rx="16" fill="#d94841"/>
    <text x="1204" y="750">Удалить</text>
  </g>
  <text x="80" y="660" font-family="Inter, sans-serif" font-size="22" fill="#8a97aa">Панель появляется при выборе чекбоксов и скрывается при сбросе</text>
</svg>
