<svg xmlns="http://www.w3.org/2000/svg" viewBox="0 0 1440 900">
  <rect width="100%" height="100%" fill="#f5f7fa"/>
  <rect x="40" y="40" width="920" height="820" rx="28" fill="#ffffff" stroke="#d0d6dc" stroke-width="2"/>
  <text x="80" y="120" font-family="Inter, sans-serif" font-size="40" fill="#1a2a3a">Колонка «В работе»</text>
  <g>
    <rect x="80" y="160" width="840" height="120" rx="20" fill="#eaf1fb" stroke="#2d6cdf" stroke-width="2"/>
    <text x="116" y="208" font-family="Inter, sans-serif" font-size="32" fill="#1a2a3a">Metro Group</text>
    <text x="116" y="244" font-family="Inter, sans-serif" font-size="24" fill="#4c5d70">5,6 млн ₽ · Вероятность 60%</text>
  </g>
  <g>
    <rect x="1000" y="40" width="400" height="820" rx="28" fill="#ffffff" stroke="#d0d6dc" stroke-width="2"/>
    <rect x="1000" y="40" width="400" height="140" rx="28" fill="#2d6cdf"/>
    <text x="1040" y="120" font-family="Inter, sans-serif" font-size="36" fill="#ffffff">Предпросмотр сделки</text>
    <text x="1040" y="200" font-family="Inter, sans-serif" font-size="30" fill="#1a2a3a">Metro Group · SaaS лицензии</text>
    <text x="1040" y="240" font-family="Inter, sans-serif" font-size="24" fill="#4c5d70">Ответственный: Анна Морозова</text>
    <text x="1040" y="280" font-family="Inter, sans-serif" font-size="24" fill="#4c5d70">Статус: Согласование</text>
    <text x="1040" y="320" font-family="Inter, sans-serif" font-size="24" fill="#4c5d70">Вероятность: 60%</text>
    <rect x="1040" y="360" width="320" height="64" rx="16" fill="#f0f3f8"/>
    <text x="1060" y="402" font-family="Inter, sans-serif" font-size="26" fill="#1a2a3a">Активные задачи (3)</text>
    <rect x="1040" y="440" width="320" height="220" rx="20" fill="#f8fafc" stroke="#d0d6dc" stroke-width="1.5"/>
    <text x="1060" y="480" font-family="Inter, sans-serif" font-size="24" fill="#1a2a3a">История коммуникаций</text>
    <text x="1060" y="520" font-family="Inter, sans-serif" font-size="22" fill="#4c5d70">12.04 Звонок · Мария Антонова</text>
    <text x="1060" y="556" font-family="Inter, sans-serif" font-size="22" fill="#4c5d70">11.04 Email · Демонстрация</text>
    <text x="1060" y="592" font-family="Inter, sans-serif" font-size="22" fill="#4c5d70">10.04 Встреча · Презентация</text>
    <rect x="1040" y="640" width="320" height="72" rx="18" fill="#2d6cdf"/>
    <text x="1080" y="684" font-family="Inter, sans-serif" font-size="28" fill="#ffffff">Открыть карточку</text>
    <text x="1040" y="744" font-family="Inter, sans-serif" font-size="22" fill="#8a97aa">Esc — закрыть предпросмотр</text>
  </g>
  <g font-family="Inter, sans-serif" font-size="24" fill="#8a97aa">
    <text x="120" y="324">Перетащите карточку, чтобы изменить стадию</text>
    <text x="120" y="364">Подсветка целевой колонки отображает доступные этапы</text>
  </g>
</svg>
